<svg id="Layer_1" data-name="Layer 1" xmlns="http://www.w3.org/2000/svg" viewBox="0 0 280 300"><defs><style>.cls-1{fill:#70addc;}</style></defs><title>commercial-building</title><path class="cls-1" d="M195,300H85a5,5,0,0,1-5-5V95a5,5,0,0,1,5-5H195a5,5,0,0,1,5,5V295a5,5,0,0,1-5,5ZM90,290H190V100H90Z"/><path class="cls-1" d="M175,100H105a5,5,0,0,1-4-2.08,4.89,4.89,0,0,1-.89-2.17,5,5,0,0,1,.2-2.33l10-30A5,5,0,0,1,115,60h50a5,5,0,0,1,4.74,3.42l10,30a5,5,0,0,1,.2,2.33,4.89,4.89,0,0,1-.89,2.17A5,5,0,0,1,175,100ZM111.94,90h56.12L161.4,70H118.6Z"/><path class="cls-1" d="M155,70H125a5,5,0,0,1-5-5V35a5,5,0,0,1,5-5h30a5,5,0,0,1,5,5V65a5,5,0,0,1-5,5ZM130,60h20V40H130Z"/><path class="cls-1" d="M140,40a5,5,0,0,1-5-5V5a5,5,0,1,1,10,0V35a5,5,0,0,1-5,5Z"/><path class="cls-1" d="M85,300H5a5,5,0,0,1-5-5V165a5,5,0,0,1,5-5H85a5,5,0,0,1,5,5V295a5,5,0,0,1-5,5ZM10,290H80V170H10Z"/><path class="cls-1" d="M275,300H195a5,5,0,0,1-5-5V165a5,5,0,0,1,5-5h80a5,5,0,0,1,5,5V295a5,5,0,0,1-5,5Zm-75-10h70V170H200Z"/><path class="cls-1" d="M25,200a5,5,0,0,1-5-5V185a5,5,0,1,1,10,0v10a5,5,0,0,1-5,5Z"/><path class="cls-1" d="M45,200a5,5,0,0,1-5-5V185a5,5,0,1,1,10,0v10a5,5,0,0,1-5,5Z"/><path class="cls-1" d="M65,200a5,5,0,0,1-5-5V185a5,5,0,1,1,10,0v10a5,5,0,0,1-5,5Z"/><path class="cls-1" d="M215,200a5,5,0,0,1-5-5V185a5,5,0,1,1,10,0v10a5,5,0,0,1-5,5Z"/><path class="cls-1" d="M235,200a5,5,0,0,1-5-5V185a5,5,0,1,1,10,0v10a5,5,0,0,1-5,5Z"/><path class="cls-1" d="M255,200a5,5,0,0,1-5-5V185a5,5,0,1,1,10,0v10a5,5,0,0,1-5,5Z"/><path class="cls-1" d="M100,130a5,5,0,0,1-5-5V115a5,5,0,1,1,10,0v10a5,5,0,0,1-5,5Z"/><path class="cls-1" d="M120,130a5,5,0,0,1-5-5V115a5,5,0,1,1,10,0v10a5,5,0,0,1-5,5Z"/><path class="cls-1" d="M180,130a5,5,0,0,1-5-5V115a5,5,0,1,1,10,0v10a5,5,0,0,1-5,5Z"/><path class="cls-1" d="M160,130a5,5,0,0,1-5-5V115a5,5,0,1,1,10,0v10a5,5,0,0,1-5,5Z"/><path class="cls-1" d="M140,130a5,5,0,0,1-5-5V115a5,5,0,1,1,10,0v10a5,5,0,0,1-5,5Z"/><path class="cls-1" d="M25,230a5,5,0,0,1-5-5V215a5,5,0,1,1,10,0v10a5,5,0,0,1-5,5Z"/><path class="cls-1" d="M45,230a5,5,0,0,1-5-5V215a5,5,0,1,1,10,0v10a5,5,0,0,1-5,5Z"/><path class="cls-1" d="M65,230a5,5,0,0,1-5-5V215a5,5,0,1,1,10,0v10a5,5,0,0,1-5,5Z"/><path class="cls-1" d="M215,230a5,5,0,0,1-5-5V215a5,5,0,1,1,10,0v10a5,5,0,0,1-5,5Z"/><path class="cls-1" d="M235,230a5,5,0,0,1-5-5V215a5,5,0,1,1,10,0v10a5,5,0,0,1-5,5Z"/><path class="cls-1" d="M255,230a5,5,0,0,1-5-5V215a5,5,0,1,1,10,0v10a5,5,0,0,1-5,5Z"/><path class="cls-1" d="M120,160a5,5,0,0,1-5-5V145a5,5,0,1,1,10,0v10a5,5,0,0,1-5,5Z"/><path class="cls-1" d="M180,160a5,5,0,0,1-5-5V145a5,5,0,1,1,10,0v10a5,5,0,0,1-5,5Z"/><path class="cls-1" d="M160,160a5,5,0,0,1-5-5V145a5,5,0,1,1,10,0v10a5,5,0,0,1-5,5Z"/><path class="cls-1" d="M140,160a5,5,0,0,1-5-5V145a5,5,0,1,1,10,0v10a5,5,0,0,1-5,5Z"/><path class="cls-1" d="M100,160a5,5,0,0,1-5-5V145a5,5,0,1,1,10,0v10a5,5,0,0,1-5,5Z"/><path class="cls-1" d="M25,260a5,5,0,0,1-5-5V245a5,5,0,1,1,10,0v10a5,5,0,0,1-5,5Z"/><path class="cls-1" d="M45,260a5,5,0,0,1-5-5V245a5,5,0,1,1,10,0v10a5,5,0,0,1-5,5Z"/><path class="cls-1" d="M65,260a5,5,0,0,1-5-5V245a5,5,0,1,1,10,0v10a5,5,0,0,1-5,5Z"/><path class="cls-1" d="M215,260a5,5,0,0,1-5-5V245a5,5,0,1,1,10,0v10a5,5,0,0,1-5,5Z"/><path class="cls-1" d="M235,260a5,5,0,0,1-5-5V245a5,5,0,1,1,10,0v10a5,5,0,0,1-5,5Z"/><path class="cls-1" d="M255,260a5,5,0,0,1-5-5V245a5,5,0,1,1,10,0v10a5,5,0,0,1-5,5Z"/><path class="cls-1" d="M120,190a5,5,0,0,1-5-5V175a5,5,0,1,1,10,0v10a5,5,0,0,1-5,5Z"/><path class="cls-1" d="M180,190a5,5,0,0,1-5-5V175a5,5,0,1,1,10,0v10a5,5,0,0,1-5,5Z"/><path class="cls-1" d="M160,190a5,5,0,0,1-5-5V175a5,5,0,1,1,10,0v10a5,5,0,0,1-5,5Z"/><path class="cls-1" d="M140,190a5,5,0,0,1-5-5V175a5,5,0,1,1,10,0v10a5,5,0,0,1-5,5Z"/><path class="cls-1" d="M100,190a5,5,0,0,1-5-5V175a5,5,0,1,1,10,0v10a5,5,0,0,1-5,5Z"/><path class="cls-1" d="M25,300a5,5,0,0,1-5-5V275a5,5,0,1,1,10,0v20a5,5,0,0,1-5,5Z"/><path class="cls-1" d="M45,300a5,5,0,0,1-5-5V275a5,5,0,1,1,10,0v20a5,5,0,0,1-5,5Z"/><path class="cls-1" d="M65,300a5,5,0,0,1-5-5V275a5,5,0,1,1,10,0v20a5,5,0,0,1-5,5Z"/><path class="cls-1" d="M215,300a5,5,0,0,1-5-5V275a5,5,0,1,1,10,0v20a5,5,0,0,1-5,5Z"/><path class="cls-1" d="M235,300a5,5,0,0,1-5-5V275a5,5,0,1,1,10,0v20a5,5,0,0,1-5,5Z"/><path class="cls-1" d="M255,300a5,5,0,0,1-5-5V275a5,5,0,1,1,10,0v20a5,5,0,0,1-5,5Z"/><path class="cls-1" d="M120,220a5,5,0,0,1-5-5V205a5,5,0,1,1,10,0v10a5,5,0,0,1-5,5Z"/><path class="cls-1" d="M180,220a5,5,0,0,1-5-5V205a5,5,0,1,1,10,0v10a5,5,0,0,1-5,5Z"/><path class="cls-1" d="M160,220a5,5,0,0,1-5-5V205a5,5,0,1,1,10,0v10a5,5,0,0,1-5,5Z"/><path class="cls-1" d="M140,220a5,5,0,0,1-5-5V205a5,5,0,1,1,10,0v10a5,5,0,0,1-5,5Z"/><path class="cls-1" d="M100,220a5,5,0,0,1-5-5V205a5,5,0,1,1,10,0v10a5,5,0,0,1-5,5Z"/><path class="cls-1" d="M120,250a5,5,0,0,1-5-5V235a5,5,0,1,1,10,0v10a5,5,0,0,1-5,5Z"/><path class="cls-1" d="M180,250a5,5,0,0,1-5-5V235a5,5,0,1,1,10,0v10a5,5,0,0,1-5,5Z"/><path class="cls-1" d="M160,250a5,5,0,0,1-5-5V235a5,5,0,1,1,10,0v10a5,5,0,0,1-5,5Z"/><path class="cls-1" d="M140,250a5,5,0,0,1-5-5V235a5,5,0,1,1,10,0v10a5,5,0,0,1-5,5Z"/><path class="cls-1" d="M100,250a5,5,0,0,1-5-5V235a5,5,0,1,1,10,0v10a5,5,0,0,1-5,5Z"/><path class="cls-1" d="M120,300a5,5,0,0,1-5-5V265a5,5,0,1,1,10,0v30a5,5,0,0,1-5,5Z"/><path class="cls-1" d="M180,300a5,5,0,0,1-5-5V265a5,5,0,1,1,10,0v30a5,5,0,0,1-5,5Z"/><path class="cls-1" d="M160,300a5,5,0,0,1-5-5V265a5,5,0,1,1,10,0v30a5,5,0,0,1-5,5Z"/><path class="cls-1" d="M140,300a5,5,0,0,1-5-5V265a5,5,0,1,1,10,0v30a5,5,0,0,1-5,5Z"/><path class="cls-1" d="M100,300a5,5,0,0,1-5-5V265a5,5,0,1,1,10,0v30a5,5,0,0,1-5,5Z"/><path class="cls-1" d="M130,100a5,5,0,0,1-5-5V85a5,5,0,1,1,10,0V95a5,5,0,0,1-5,5Z"/><path class="cls-1" d="M150,100a5,5,0,0,1-5-5V85a5,5,0,1,1,10,0V95a5,5,0,0,1-5,5Z"/><path class="cls-1" d="M140,70a5,5,0,0,1-5-5V50a5,5,0,1,1,10,0V65a5,5,0,0,1-5,5Z"/></svg>